<svg width="1800" height="560" viewBox="0 0 1800 560" fill="none" xmlns="http://www.w3.org/2000/svg">
  <rect width="1800" height="560" rx="24" fill="#141218"/>

  <g stroke="#F4F4F5" stroke-width="24" stroke-linecap="round" stroke-linejoin="round" fill="none">
    <!-- M (rounded, extended center valley) -->
    <path d="M120 360V210C120 192 134 178 152 178H196C214 178 228 192 228 210V315C228 333 242 347 260 347H294C312 347 326 333 326 315V210C326 192 340 178 358 178H402C420 178 434 192 434 210V360"/>

    <!-- O -->
    <rect x="490" y="178" width="182" height="182" rx="38"/>

    <!-- C = open O (right side open) -->
    <path d="M744 220C744 196.804 762.804 178 786 178H912"/>
    <path d="M744 318C744 341.196 762.804 360 786 360H912"/>
    <path d="M744 220V318"/>

    <!-- O -->
    <rect x="972" y="178" width="182" height="182" rx="38"/>

    <!-- J -->
    <path d="M1316 178H1392V312C1392 339.614 1369.61 362 1342 362H1278"/>

    <!-- I -->
    <path d="M1458 178V362"/>

    <!-- B (monoline rounded) -->
    <path d="M1528 178V362"/>
    <path d="M1528 178H1644C1666.09 178 1684 195.909 1684 218C1684 240.091 1666.09 258 1644 258H1528"/>
    <path d="M1528 258H1652C1674.09 258 1692 275.909 1692 298C1692 320.091 1674.09 338 1652 338H1528"/>
  </g>

  <!-- Q-tail accent nod on last O of MOCO -->
  <path d="M1070 345C1086 377 1115 399 1152 404V372C1132 367 1116 352 1108 334L1070 345Z" fill="#F4F4F5"/>
</svg>
