<svg width="1800" height="560" viewBox="0 0 1800 560" fill="none" xmlns="http://www.w3.org/2000/svg">
  <rect width="1800" height="560" rx="24" fill="#141218"/>

  <g stroke="#F4F4F5" stroke-width="24" stroke-linecap="round" stroke-linejoin="round" fill="none">
    <!-- M (rounded, extended center valley) -->
    <path d="M120 360V210C120 192 134 178 152 178H196C214 178 228 192 228 210V315C228 333 242 347 260 347H294C312 347 326 333 326 315V210C326 192 340 178 358 178H402C420 178 434 192 434 210V360"/>

    <!-- O -->
    <rect x="490" y="178" width="182" height="182" rx="38"/>

    <!-- C = open O (right side open) -->
    <path d="M744 220C744 196.804 762.804 178 786 178H912"/>
    <path d="M744 318C744 341.196 762.804 360 786 360H912"/>
    <path d="M744 220V318"/>

    <!-- O -->
    <rect x="972" y="178" width="182" height="182" rx="38"/>

    <!-- j (lowercase) -->
    <path d="M1318 214V320C1318 343.196 1299.2 362 1276 362H1248"/>

    <!-- i (lowercase) -->
    <path d="M1388 262V362"/>

    <!-- b (lowercase, rounded bowl) -->
    <path d="M1468 178V362"/>
    <path d="M1468 262H1578C1600.09 262 1618 279.909 1618 302C1618 324.091 1600.09 342 1578 342H1468"/>
  </g>

  <!-- lowercase i + j dots -->
  <circle cx="1318" cy="184" r="10" fill="#F4F4F5"/>
  <circle cx="1388" cy="226" r="10" fill="#F4F4F5"/>
</svg>
