<svg width="1800" height="560" viewBox="0 0 1800 560" fill="none" xmlns="http://www.w3.org/2000/svg">
  <rect width="1800" height="560" rx="24" fill="#141218"/>

  <g stroke="#F4F4F5" stroke-width="24" stroke-linecap="round" stroke-linejoin="round" fill="none">
    <path d="M120 350V188H154L210 286H244L300 188H334V350"/>
    <rect x="374" y="188" width="214" height="162" rx="32"/>
    <path d="M628 220C628 202.327 642.327 188 660 188H818C834 188 846 200 846 214"/>
    <path d="M628 318C628 335.673 642.327 350 660 350H818C834 350 846 338 846 324"/>
    <path d="M628 220V318"/>
    <rect x="882" y="188" width="214" height="162" rx="32"/>

    <path d="M1280 214V336C1280 365 1257 386 1227 386H1190"/>
    <path d="M1360 214V362"/>

    <path d="M1440 178V362"/>
    <path d="M1440 262H1468"/>
    <path d="M1468 262H1548C1561.25 262 1572 272.75 1572 286V318C1572 331.25 1561.25 342 1548 342H1468"/>
    <path d="M1440 342H1468"/>
  </g>
</svg>
