<svg width="1800" height="560" viewBox="0 0 1800 560" fill="none" xmlns="http://www.w3.org/2000/svg">
  <rect width="1800" height="560" rx="24" fill="#141218"/>

  <g stroke="#F4F4F5" stroke-width="24" stroke-linecap="round" stroke-linejoin="round" fill="none">
    <!-- MOCO on a fixed-width grid (monospace rhythm) -->

    <!-- M (single valley) : box width 214 -->
    <path d="M120 350V220H154L227 332L300 220H334V350"/>

    <!-- O : box width 214 -->
    <rect x="374" y="188" width="214" height="162" rx="32"/>

    <!-- C (open rectangular O) : box width 214 -->
    <path d="M628 220C628 202.327 642.327 188 660 188H806"/>
    <path d="M628 318C628 335.673 642.327 350 660 350H806"/>
    <path d="M628 220V318"/>

    <!-- O : box width 214 -->
    <rect x="882" y="188" width="214" height="162" rx="32"/>

    <!-- jib on near-monospace lowercase grid -->

    <!-- j : advance ~100 -->
    <path d="M1220 214V320C1220 343.196 1201.2 362 1178 362H1150"/>

    <!-- i : advance ~100 -->
    <path d="M1320 214V362"/>

    <!-- b : advance ~100 -->
    <path d="M1420 178V362"/>
    <path d="M1420 262H1530C1552.09 262 1570 279.909 1570 302C1570 324.091 1552.09 342 1530 342H1420"/>
  </g>

  <!-- dots -->
  <circle cx="1220" cy="184" r="10" fill="#F4F4F5"/>
  <circle cx="1320" cy="184" r="10" fill="#F4F4F5"/>
</svg>
